<svg xmlns="http://www.w3.org/2000/svg" xmlns:xlink="http://www.w3.org/1999/xlink">
<symbol id="pin" viewBox="0 0 81 80"><rect x="0.5" width="80" height="80" rx="40" fill="#B1DAF6"/>
<path d="M40.3379 29.9681C39.349 29.9681 38.3823 30.2614 37.56 30.8108C36.7378 31.3602 36.0969 32.1411 35.7185 33.0547C35.3401 33.9684 35.241 34.9737 35.434 35.9436C35.6269 36.9135 36.1031 37.8044 36.8024 38.5037C37.5016 39.2029 38.3925 39.6791 39.3624 39.8721C40.3323 40.065 41.3377 39.966 42.2513 39.5875C43.1649 39.2091 43.9458 38.5682 44.4952 37.746C45.0446 36.9237 45.3379 35.957 45.3379 34.9681C45.3364 33.6425 44.8091 32.3716 43.8718 31.4343C42.9344 30.4969 41.6635 29.9696 40.3379 29.9681ZM40.3379 37.4681C39.8434 37.4681 39.3601 37.3215 38.949 37.0468C38.5378 36.7721 38.2174 36.3817 38.0282 35.9248C37.839 35.468 37.7895 34.9654 37.8859 34.4804C37.9824 33.9955 38.2205 33.55 38.5701 33.2004C38.9198 32.8507 39.3652 32.6126 39.8502 32.5162C40.3351 32.4197 40.8378 32.4692 41.2946 32.6584C41.7514 32.8477 42.1419 33.1681 42.4166 33.5792C42.6913 33.9903 42.8379 34.4737 42.8379 34.9681C42.8371 35.6309 42.5735 36.2664 42.1048 36.7351C41.6361 37.2037 41.0007 37.4674 40.3379 37.4681Z" fill="#2094E6"/>
<path d="M49.9459 25.3527C47.5703 22.9778 44.3992 21.5669 41.0446 21.3925C37.69 21.2181 34.3897 22.2925 31.7806 24.4084C29.1716 26.5242 27.4388 29.5315 26.9167 32.8498C26.3945 36.1681 27.12 39.5622 28.9532 42.377L38.3991 56.878C38.6093 57.2007 38.8967 57.4658 39.2353 57.6493C39.5738 57.8329 39.9528 57.929 40.3379 57.929C40.723 57.929 41.1021 57.8329 41.4406 57.6493C41.7792 57.4658 42.0666 57.2007 42.2768 56.878L51.723 42.377C53.4239 39.7659 54.1757 36.6494 53.8521 33.5499C53.5286 30.4504 52.1494 27.5563 49.9459 25.3527ZM49.6283 41.0124L40.338 55.2741L31.0476 41.0124C28.2038 36.6469 28.8138 30.8047 32.4978 27.1205C33.5274 26.0909 34.7497 25.2741 36.0949 24.7169C37.4401 24.1597 38.8819 23.8729 40.338 23.8729C41.794 23.8729 43.2358 24.1597 44.581 24.7169C45.9263 25.2741 47.1486 26.0909 48.1781 27.1205C51.8622 30.8047 52.472 36.6469 49.6283 41.0124Z" fill="#2094E6"/>
</symbol>
<symbol id="mail" viewBox="0 0 81 80"><rect x="0.5" width="80" height="80" rx="40" fill="#B1DAF6"/>
<path d="M56.6666 30C56.6666 28.1667 55.1666 26.6667 53.3333 26.6667H26.6666C24.8333 26.6667 23.3333 28.1667 23.3333 30V50C23.3333 51.8334 24.8333 53.3334 26.6666 53.3334H53.3333C55.1666 53.3334 56.6666 51.8334 56.6666 50V30ZM53.3333 30L39.9999 38.3334L26.6666 30H53.3333ZM53.3333 50H26.6666V33.3334L39.9999 41.6667L53.3333 33.3334V50Z" fill="#2094E6"/>
</symbol>
<symbol id="tel" viewBox="0 0 81 80" fill="none"><rect x="0.5" width="80" height="80" rx="40" fill="#B1DAF6"/>
<path d="M37.5901 30.4L31.9517 23.8917C31.3017 23.1417 30.1101 23.145 29.3551 23.9017L24.7184 28.5467C23.3384 29.9283 22.9434 31.98 23.7417 33.625C28.5111 43.5 36.4751 51.4752 46.3434 56.2583C47.9867 57.0567 50.0367 56.6617 51.4167 55.28L56.0967 50.5917C56.8551 49.8333 56.8567 48.635 56.1001 47.985L49.5667 42.3767C48.8834 41.79 47.8217 41.8667 47.1367 42.5533L44.8634 44.83C44.747 44.952 44.5938 45.0324 44.4273 45.0589C44.2608 45.0854 44.0902 45.0565 43.9417 44.9767C40.2258 42.8368 37.1434 39.7504 35.0084 36.0317C34.9284 35.8829 34.8995 35.7121 34.926 35.5453C34.9525 35.3785 35.0329 35.225 35.1551 35.1083L37.4217 32.84C38.1084 32.15 38.1834 31.0833 37.5901 30.3983V30.4Z" stroke="#2094E6" stroke-width="2" stroke-linecap="round" stroke-linejoin="round"/>
</svg>
</symbol>
</svg>