<svg xmlns="http://www.w3.org/2000/svg" xmlns:xlink="http://www.w3.org/1999/xlink">
<symbol id="fb" viewBox="0 0 10 18"><path d="M6.397 17.9969V9.80091H9.162L9.573 6.59191H6.397V4.54791C6.397 3.62191 6.655 2.98791 7.984 2.98791H9.668V0.126906C8.849 0.0389058 8.025 -0.00309418 7.201 -9.41776e-05C4.757 -9.41776e-05 3.079 1.49191 3.079 4.23091V6.58591H0.332001V9.79491H3.085V17.9969H6.397Z" fill="white"/>
</symbol>
<symbol id="ig" viewBox="0 0 18 18"><path fill-rule="evenodd" clip-rule="evenodd" d="M13.5 0H4.5C2.02522 0 0 2.02432 0 4.5V13.5C0 15.9748 2.02522 18 4.5 18H13.5C15.9748 18 18 15.9748 18 13.5V4.5C18 2.02432 15.9748 0 13.5 0ZM9 12.7499C6.92865 12.7499 5.24993 11.0704 5.24993 9C5.24993 6.92865 6.92865 5.24993 9 5.24993C11.0704 5.24993 12.7501 6.92865 12.7501 9C12.7501 11.0704 11.0704 12.7499 9 12.7499ZM12.7501 4.12492C12.7501 4.74615 13.2532 5.24992 13.8751 5.24992C14.497 5.24992 15.0001 4.74615 15.0001 4.12492C15.0001 3.5037 14.497 2.99992 13.8751 2.99992C13.2532 2.99992 12.7501 3.5037 12.7501 4.12492Z" fill="white"/>
</symbol>
<symbol id="tw" viewBox="0 0 20 16"><path d="M17.633 3.9968C17.646 4.1718 17.646 4.3458 17.646 4.5198C17.646 9.8448 13.593 15.9808 6.186 15.9808C3.904 15.9808 1.784 15.3198 0 14.1718C0.324 14.2088 0.636 14.2218 0.973 14.2218C2.856 14.2218 4.589 13.5858 5.974 12.5008C4.203 12.4638 2.719 11.3038 2.207 9.7078C2.456 9.7448 2.706 9.7698 2.968 9.7698C3.329 9.7698 3.692 9.7198 4.029 9.6328C2.182 9.2588 0.799 7.6378 0.799 5.6798V5.6298C1.336 5.9288 1.959 6.1158 2.619 6.1408C1.534 5.4188 0.823 4.1838 0.823 2.7868C0.823 2.0388 1.022 1.3528 1.371 0.754799C3.354 3.1978 6.335 4.7948 9.677 4.9698C9.615 4.6698 9.577 4.3588 9.577 4.0468C9.577 1.8268 11.373 0.0187988 13.605 0.0187988C14.765 0.0187988 15.812 0.504799 16.548 1.2908C17.458 1.1158 18.33 0.778799 19.104 0.317799C18.805 1.2528 18.168 2.0388 17.333 2.5378C18.144 2.4498 18.93 2.2258 19.652 1.9138C19.104 2.7118 18.419 3.4228 17.633 3.9968Z" fill="white"/>
</symbol>
<symbol id="yt" viewBox="0 0 23 16"><path fill-rule="evenodd" clip-rule="evenodd" d="M19.9673 0.731339C20.929 0.856641 21.8482 1.79195 21.9651 2.76735C22.3792 6.34207 22.3792 9.80847 21.9651 13.3821C21.8482 14.3575 20.929 15.2939 19.9673 15.4181C14.1029 16.1468 8.17218 16.1468 2.30945 15.4181C1.34686 15.2936 0.427701 14.3575 0.310753 13.3821C-0.1033 9.8082 -0.1033 6.34207 0.310753 2.76735C0.427701 1.79195 1.34686 0.856362 2.30945 0.731339C8.17218 0.00263967 14.1026 0.00263967 19.9673 0.731339ZM9.28152 4.36258V11.788L14.8505 8.07541L9.28152 4.36258Z" fill="white"/>
</symbol>
</svg>