<svg id="SvgjsSvg1001" width="288" height="288" xmlns="http://www.w3.org/2000/svg" version="1.1" xmlns:xlink="http://www.w3.org/1999/xlink" xmlns:svgjs="http://svgjs.com/svgjs"><circle id="SvgjsCircle1012" r="144" cx="144" cy="144" transform="matrix(0.7916,0,0,0.7916,30.009600000000006,30.009600000000006)" fill="#3d474a"></circle><defs id="SvgjsDefs1002"></defs><g id="SvgjsG1008" transform="matrix(0.4652,0,0,0.4652,77.01124896240235,77.00626272236751)"><svg xmlns="http://www.w3.org/2000/svg" width="288" height="288" fill="none" viewBox="0 0 39 39"><path fill="#e3dec1" d="M35.2704 8.03152C34.7095 7.26166 34.0934 6.53358 33.427 5.85301 33.3796 5.80532 33.3347 5.75793 33.2873 5.71024 31.1808 3.60163 28.6192 2.00376 25.7991 1.03937V26.6181C25.7991 27.4755 25.6303 28.3246 25.3022 29.1167 24.9741 29.9089 24.4932 30.6287 23.8869 31.2349 23.2806 31.8413 22.5608 32.3223 21.7686 32.6503 20.9765 32.9783 20.1274 33.1472 19.27 33.1472H15.3779V38.5627C16.7327 38.8517 18.114 38.9975 19.4993 38.9975 23.0962 38.9978 26.6232 38.0033 29.6901 36.1239 32.7571 34.2445 35.2442 31.553 36.8766 28.3479 38.5089 25.1427 39.2228 21.5483 38.9394 17.9626 38.656 14.3767 37.3861 10.9393 35.2704 8.03029V8.03152zM19.4992 3.23512e-9C15.9024.000342519 12.3757.995454 9.30914 2.87529 6.24264 4.75513 3.75575 7.44645 2.12353 10.6516.491304 13.8568-.22267 17.451.060562 21.0367.343793 24.6224 1.6132 28.0599 3.72839 30.969 4.29059 31.7386 4.90759 32.4666 5.57459 33.1472 5.62044 33.1934 5.66536 33.2395 5.71121 33.2888 7.81732 35.3971 10.3781 36.9953 13.1972 37.9609V12.3797C13.198 10.6481 13.8863 8.98775 15.111 7.76363 16.3356 6.53951 17.9963 5.85183 19.7278 5.85183H23.6199V.436318C22.2656.146225 20.8843-.0000251156 19.4992 3.23512e-9z" class="colorE3DEC1 svgShape"></path></svg></g></svg>