<?xml version="1.0" standalone="no"?>
<!DOCTYPE svg PUBLIC "-//W3C//DTD SVG 20010904//EN"
 "http://www.w3.org/TR/2001/REC-SVG-20010904/DTD/svg10.dtd">
<svg version="1.0" xmlns="http://www.w3.org/2000/svg"
 width="700.000000pt" height="700.000000pt" viewBox="0 0 700.000000 700.000000"
 preserveAspectRatio="xMidYMid meet">
<metadata>
Created by potrace 1.14, written by Peter Selinger 2001-2017
</metadata>
<g transform="translate(0.000000,700.000000) scale(0.100000,-0.100000)"
fill="#000000" stroke="none">
<path d="M3288 6265 c-2 -1 -32 -6 -68 -9 -397 -41 -738 -151 -1110 -359 -250
-139 -542 -388 -744 -632 -83 -100 -72 -86 -138 -180 -177 -254 -313 -540
-394 -830 -10 -34 -55 -225 -59 -250 -3 -16 -7 -41 -10 -55 -3 -14 -7 -45 -10
-70 -3 -25 -8 -61 -11 -80 -10 -64 -12 -474 -3 -550 4 -41 10 -93 13 -115 8
-74 39 -236 55 -292 5 -18 8 -33 5 -33 -3 0 0 -8 5 -18 6 -11 12 -30 15 -44 2
-14 20 -74 40 -133 290 -866 1017 -1552 1891 -1785 116 -31 237 -58 295 -65
19 -3 46 -7 60 -10 100 -20 519 -28 655 -11 39 4 84 9 100 11 27 2 76 10 144
22 12 2 53 11 90 19 36 9 73 17 81 19 68 14 370 118 418 145 9 5 44 21 77 36
164 75 380 210 545 341 159 127 347 317 445 448 16 22 33 42 36 45 11 9 117
165 156 230 182 300 322 679 367 995 3 22 9 57 12 77 13 85 15 123 19 328 3
212 -4 330 -31 490 -72 435 -248 848 -510 1201 -81 108 -99 130 -189 227 -272
293 -587 516 -950 671 -153 66 -399 143 -520 165 -16 2 -57 10 -90 15 -33 6
-80 14 -105 16 -25 3 -76 10 -115 14 -62 8 -459 13 -467 6z"/>
</g>
</svg>
